<svg xmlns="http://www.w3.org/2000/svg" width="49.275" height="48.874" viewBox="0 0 49.275 48.874"><defs><style>.a{fill:#f2e6b5;}.b{fill:#f0be00;}.c{fill:#f9f9f9;}</style></defs><g transform="translate(-254.444 -340.508)"><g transform="translate(254.913 341.066)"><path class="a" d="M282.892,389.506l-3.472-1.425-3.472,1.425-2.935-2.339-3.734.384-2.151-3.075-3.69-.684-1.2-3.556-3.349-1.692-.152-3.749L256,372.225l.916-3.64-1.9-3.236,1.9-3.237-.916-3.64,2.737-2.569.153-3.75,3.349-1.691,1.2-3.556,3.689-.684,2.151-3.075,3.734.384,2.934-2.34,3.472,1.425,3.472-1.425,2.935,2.341,3.733-.385,2.152,3.075,3.69.685,1.2,3.556,3.349,1.691.152,3.75,2.737,2.569-.916,3.639,1.9,3.237-1.9,3.237.916,3.64-2.737,2.569-.153,3.749-3.35,1.692-1.2,3.556-3.689.684-2.152,3.075-3.733-.384Zm-9.63-3.188,2.82,2.248,3.338-1.369,3.338,1.369,2.82-2.248,3.587.37,2.067-2.956,3.546-.657,1.154-3.417,3.22-1.627.147-3.6,2.63-2.469-.879-3.5,1.825-3.112-1.825-3.112.88-3.5-2.63-2.468-.147-3.6-3.22-1.625-1.154-3.418-3.547-.658-2.067-2.956-3.588.369-2.82-2.248L279.42,343.5l-3.338-1.369-2.82,2.248-3.587-.37-2.067,2.956-3.547.658-1.154,3.418-3.22,1.626-.147,3.6-2.629,2.468.879,3.5-1.825,3.112,1.825,3.112-.88,3.5,2.63,2.468.147,3.6,3.22,1.626,1.154,3.417,3.547.658,2.067,2.956Z" transform="translate(-255.017 -341.19)"/></g><g transform="translate(254.444 340.508)"><path class="b" d="M302.3,364.2l-1.862,3.174.9,3.569-2.683,2.519-.15,3.677-3.285,1.659-1.177,3.487-3.618.671-2.109,3.016-3.66-.377-2.877,2.294-3.405-1.4-3.405,1.4-2.877-2.294-3.661.377-2.109-3.016-3.618-.671-1.177-3.487-3.285-1.659-.15-3.677-2.683-2.519.9-3.569-1.862-3.174,1.862-3.174-.9-3.569,2.683-2.519.15-3.677,3.285-1.659,1.177-3.487,3.618-.671,2.109-3.016,3.66.377,2.877-2.294,3.405,1.4,3.405-1.4,2.877,2.294,3.661-.377,2.109,3.016,3.618.671,1.177,3.487,3.285,1.659.15,3.677,2.683,2.518-.9,3.569Z" transform="translate(-254.444 -340.508)"/></g><g transform="translate(264.842 356.88)"><g transform="translate(0 0)"><path class="c" d="M275.241,375.476a11.851,11.851,0,0,1-1.573-.634q-.739-.317-1.162-.464a2.732,2.732,0,0,0-.908-.148,1.35,1.35,0,0,0-.865.254,1.714,1.714,0,0,0-.507.76.347.347,0,0,1-.359.274h-2.323a.406.406,0,0,1-.285-.106.352.352,0,0,1-.116-.274,4.342,4.342,0,0,1,.665-2.269,3.635,3.635,0,0,1,1.678-1.4c-.014-.323-.077-.887-.19-1.688h-1.6a.543.543,0,0,1-.528-.529v-1.688a.5.5,0,0,1,.159-.381.526.526,0,0,1,.369-.148h.992a8.4,8.4,0,0,1-.042-.992,5.373,5.373,0,0,1,1.51-4.106,6.11,6.11,0,0,1,4.36-1.426,7.572,7.572,0,0,1,3.136.612,5.022,5.022,0,0,1,2.132,1.732,4.654,4.654,0,0,1,.792,2.64.466.466,0,0,1-.126.327.412.412,0,0,1-.317.138h-3a.73.73,0,0,1-.739-.549,2.689,2.689,0,0,0-.686-1.31,1.715,1.715,0,0,0-1.214-.422q-1.754,0-1.753,2.387,0,.337.043.97h3.082a.508.508,0,0,1,.528.529v1.688a.526.526,0,0,1-.148.37.5.5,0,0,1-.38.159h-2.935q.021.168.064.718a8.545,8.545,0,0,1,.02,1.034,6.888,6.888,0,0,1,1.5.548,6.176,6.176,0,0,0,.865.369,2.586,2.586,0,0,0,.8.117,1.615,1.615,0,0,0,1.024-.306,2.253,2.253,0,0,0,.644-.876.433.433,0,0,1,.38-.254h2.027a.382.382,0,0,1,.3.116.411.411,0,0,1,.1.285,4.414,4.414,0,0,1-.58,2.228,3.9,3.9,0,0,1-1.435,1.436,3.744,3.744,0,0,1-1.869.5A5.22,5.22,0,0,1,275.241,375.476Z" transform="translate(-267.144 -360.505)"/></g><g transform="translate(15.096 0.233)"><path class="c" d="M288.423,375.189a4.876,4.876,0,0,1-2.09-1.626,4.051,4.051,0,0,1-.75-2.217.432.432,0,0,1,.444-.443H289a.7.7,0,0,1,.7.4,2.151,2.151,0,0,0,.792,1.014,2.259,2.259,0,0,0,1.235.316,2.153,2.153,0,0,0,1.51-.549,1.978,1.978,0,0,0,.6-1.54,1.909,1.909,0,0,0-.591-1.436,2.1,2.1,0,0,0-1.52-.571,2.172,2.172,0,0,0-.845.137,2.832,2.832,0,0,0-.612.37.938.938,0,0,1-.549.253h-2.935a.468.468,0,0,1-.465-.464l.781-7.411a.64.64,0,0,1,.222-.464.715.715,0,0,1,.476-.169h8.593a.506.506,0,0,1,.528.528v2.111a.522.522,0,0,1-.148.369.5.5,0,0,1-.38.159H290.25l-.253,2.6a3.715,3.715,0,0,1,1.14-.539,6.2,6.2,0,0,1,1.646-.179,5.507,5.507,0,0,1,2.534.6,4.8,4.8,0,0,1,1.89,1.7,4.539,4.539,0,0,1,.707,2.513,4.868,4.868,0,0,1-.738,2.65,4.978,4.978,0,0,1-2.143,1.837,7.657,7.657,0,0,1-3.3.665A8.133,8.133,0,0,1,288.423,375.189Z" transform="translate(-285.583 -360.789)"/></g></g></g></svg>